<?xml version='1.0' encoding='iso-8859-1'?>
<!-- Uploaded to: SVG Repo, www.svgrepo.com, Generator: SVG Repo Mixer Tools -->
<svg fill="#000000" height="800px" width="800px" version="1.1" xmlns="http://www.w3.org/2000/svg" viewBox="0 0 463 463" xmlns:xlink="http://www.w3.org/1999/xlink" enable-background="new 0 0 463 463">
  <g>
    <path d="m447,341.234v-17.734c0-79.126-64.374-143.5-143.5-143.5h-113.734c-3.138-9.29-11.93-16-22.266-16-4.687,0-8.5-3.813-8.5-8.5v-8.5h0.5c4.142,0 7.5-3.358 7.5-7.5s-3.358-7.5-7.5-7.5h-16.5v-27.077l47.496,9.543c1.786,0.357 3.582,0.533 5.365,0.533 6.219,0 12.28-2.137 17.192-6.165 6.321-5.182 9.947-12.842 9.947-21.016s-3.625-15.833-9.946-21.016c-6.322-5.183-14.544-7.236-22.558-5.632l-50.889,10.177c-4.123-6.796-11.593-11.347-20.107-11.347s-15.984,4.551-20.107,11.348l-50.889-10.178c-8.013-1.602-16.237,0.45-22.558,5.632-6.321,5.182-9.946,12.842-9.946,21.016s3.625,15.834 9.947,21.016c4.913,4.028 10.975,6.166 17.192,6.166 1.781,0 3.575-0.176 5.357-0.532l47.504-9.443v26.975h-16.5c-4.142,0-7.5,3.358-7.5,7.5s3.358,7.5 7.5,7.5h0.5v8.5c0,4.687-3.813,8.5-8.5,8.5-10.336,0-19.128,6.71-22.266,16h-25.734c-12.958,0-23.5,10.542-23.5,23.5v64c0,12.958 10.542,23.5 23.5,23.5h25.734c3.138,9.29 11.93,16 22.266,16h96c10.336,0 19.128-6.71 22.266-16h113.734c17.92,0 32.5,14.58 32.5,32.5v17.734c-9.29,3.138-16,11.93-16,22.266v16c0,12.958 10.542,23.5 23.5,23.5h96c12.958,0 23.5-10.542 23.5-23.5v-16c0-10.336-6.71-19.128-16-22.266zm-253.563-265.355c3.589-0.719 7.274,0.201 10.107,2.523 2.832,2.322 4.456,5.753 4.456,9.416s-1.625,7.094-4.457,9.416c-2.832,2.322-6.516,3.242-10.1,2.524l-50.443-10.135v-3.657l50.437-10.087zm-73.937-.879c4.687,0 8.5,3.813 8.5,8.5v16.5h-17v-16.5c0-4.687 3.813-8.5 8.5-8.5zm-73.937,24.757c-3.592,0.719-7.275-0.202-10.106-2.523-2.832-2.322-4.457-5.754-4.457-9.416s1.624-7.094 4.456-9.416c2.832-2.322 6.515-3.243 10.107-2.523l50.437,10.088v3.765l-50.437,10.025zm65.437,15.243h17v17h-17v-17zm-96,152.5v-64c0-4.687 3.813-8.5 8.5-8.5h24.5v81h-24.5c-4.687,0-8.5-3.813-8.5-8.5zm161,16c0,4.687-3.813,8.5-8.5,8.5h-96c-4.68,0-8.488-3.803-8.499-8.481 0-0.007 0.001-0.013 0.001-0.019 0-0.013-0.002-0.026-0.002-0.039v-95.923c0-0.013 0.002-0.026 0.002-0.039 0-0.007-0.001-0.013-0.001-0.019 0.011-4.677 3.819-8.48 8.499-8.48 12.958,0 23.5-10.542 23.5-23.5v-8.5h49v8.5c0,12.958 10.542,23.5 23.5,23.5 4.687,0 8.5,3.813 8.5,8.5v96zm127.5-7.5h-112.5v-81h112.5c70.855,0 128.5,57.645 128.5,128.5v16.5h-81v-16.5c0-26.191-21.309-47.5-47.5-47.5zm144.5,103.5c0,4.687-3.813,8.5-8.5,8.5h-96c-4.687,0-8.5-3.813-8.5-8.5v-16c0-4.687 3.813-8.5 8.5-8.5h96c4.687,0 8.5,3.813 8.5,8.5v16z"/>
  </g>
</svg>